<svg viewBox = "0 0 63 48" width="63" height="48" xmlns="http://www.w3.org/2000/svg"><g transform="matrix(1 0 0 1 31.5 24)"  ><g style=""   ><g transform="matrix(1 0 0 1 0 0)"  ><path style="stroke: none; stroke-width: 1; stroke-dasharray: none; stroke-linecap: butt; stroke-dashoffset: 0; stroke-linejoin: miter; stroke-miterlimit: 4; fill: rgb(99,106,232); fill-rule: evenodd; opacity: 1;"  transform=" translate(-31.5, -24)" d="M 12 0 C 5.37258 0 0 5.37258 0 12 L 0 36 C 0 42.6274 5.37258 48 12 48 L 51 48 C 57.6274 48 63 42.6274 63 36 L 63 32 L 43 32 C 38.5817 32 35 28.4183 35 24 C 35 19.5817 38.5817 16 43 16 L 63 16 L 63 12 C 63 5.37258 57.6274 0 51 0 L 12 0 Z" stroke-linecap="round" /></g><g transform="matrix(1 0 0 1 10.5 0)"  ><circle style="stroke: none; stroke-width: 1; stroke-dasharray: none; stroke-linecap: butt; stroke-dashoffset: 0; stroke-linejoin: miter; stroke-miterlimit: 4; fill: rgb(99,106,232); fill-rule: nonzero; opacity: 1;"  cx="0" cy="0" r="4" /></g></g></g></svg>